<?xml version="1.0" encoding="iso-8859-1"?>
<!-- Uploaded to: SVG Repo, www.svgrepo.com, Generator: SVG Repo Mixer Tools -->
<svg version="1.1" id="Layer_1" xmlns="http://www.w3.org/2000/svg" xmlns:xlink="http://www.w3.org/1999/xlink" 
	 viewBox="0 0 512 512" xml:space="preserve">
<path style="fill:#CC582F;" d="M290.532,266.261l-44.787-44.775c-28.472-18.309-58.395-21.532-77.885-2.042
	c-7.727,7.727-15.651,20.88-21.951,36.408c-7.026,17.3-22.295,30.047-40.579,33.849c-36.629,7.629-71.573,24.682-87.962,41.083
	c-33.221,33.209-16.168,89.537,29.075,134.779s101.57,62.296,134.779,29.075c16.401-16.389,33.455-51.333,41.083-87.962
	c3.802-18.284,16.549-33.553,33.849-40.579c15.54-6.287,28.681-14.224,36.408-21.951
	C312.052,324.656,308.816,294.733,290.532,266.261z"/>
<path style="fill:#C49270;" d="M229.756,237.476l173.15-161.731l38.484-0.693l-5.127,34.049L274.543,282.25l-16.475,17.755
	c0.332-11.886-4.023-23.895-13.104-32.963c-9.068-9.08-21.077-13.436-32.963-13.104L229.756,237.476z"/>
<path style="fill:#CC582F;" d="M511.994,52.416l-51.357,44.824c-3.457,3.027-7.296,5.561-11.394,7.555
	c-4.097,1.993-8.465,3.445-12.981,4.306l-33.356-33.356c1.71-9.031,5.808-17.447,11.861-24.387L459.591,0
	c11.837,4.959,22.467,12.144,31.363,21.052C499.862,29.961,507.036,40.579,511.994,52.416z"/>
<rect x="103.399" y="352.864" transform="matrix(-0.7071 0.7071 -0.7071 -0.7071 480.0863 589.0342)" style="fill:#E0B08C;" width="29.302" height="82.165"/>
<path style="fill:#4D4D4D;" d="M224.705,287.301c14.654,14.642,14.654,38.389,0,53.043c-14.642,14.642-38.389,14.642-53.043,0
	c-14.642-14.654-14.642-38.401,0-53.043C186.317,272.647,210.064,272.647,224.705,287.301z"/>
</svg>